<svg xmlns="http://www.w3.org/2000/svg" viewBox="0 0 789.17 774"><title>cake-menu</title><g id="Layer_2" data-name="Layer 2"><g id="Layer_1-2" data-name="Layer 1"><path id="bg-circle" d="M787.17,382.17l-13.61-13.61C763.94,163.39,594.55,0,387,0,173.27,0,0,173.27,0,387S173.27,774,387,774c207.55,0,376.94-163.39,386.56-368.56l13.61-13.61A6.83,6.83,0,0,0,787.17,382.17Z" style="fill:#fff"/><path id="top-slice" d="M652.16,121.84,387,387,121.84,121.84C268.28-24.61,505.72-24.61,652.16,121.84Z" style="fill:#fff7f5"/><path id="right-slice" d="M652.16,652.16,387,387,652.16,121.84C798.61,268.28,798.61,505.72,652.16,652.16Z" style="fill:#fff5f9"/><path id="bottom-slice" d="M652.16,652.16c-146.44,146.45-383.88,146.45-530.32,0L387,387Z" style="fill:#f9f3ff"/><path id="left-slice" d="M387,387,121.84,652.16c-146.45-146.44-146.45-383.88,0-530.32Z" style="fill:#fffef8"/><circle id="ceenter-ellipse" cx="387" cy="387" r="151.5" style="fill:#f5faff;stroke:#fffdfe;stroke-miterlimit:10"/></g></g></svg>